<svg width="807" height="892" viewBox="0 0 807 892" fill="none" xmlns="http://www.w3.org/2000/svg">
<g opacity="0.6">
<path d="M-488.376 189.221C-663.649 189.221 -807.307 361.569 -775.807 534.056V1312.37H876.379V0.0478516C815.205 154.863 718.616 220.569 552.209 220.569C381.981 220.569 324.209 28.1535 161.044 28.1535C-65.0798 28.1535 14.087 512.436 -156.642 512.436C-337.483 512.436 -317.647 189.221 -488.376 189.221Z" fill="url(#paint0_linear_100_3306)" fill-opacity="0.5"/>
<path d="M-775.807 542.704C-807.307 370.218 -663.649 197.869 -488.376 197.869C-317.647 197.869 -337.483 521.084 -156.642 521.084C14.087 521.084 -65.0798 36.802 161.044 36.802C324.209 36.802 381.981 229.218 552.209 229.218C718.616 229.218 815.205 163.512 876.379 8.69629" stroke="white" stroke-opacity="0.15" stroke-width="10.1237"/>
</g>
<defs>
<linearGradient id="paint0_linear_100_3306" x1="48.1063" y1="0.0478516" x2="47.547" y2="1239.94" gradientUnits="userSpaceOnUse">
<stop stop-color="white" stop-opacity="0.2"/>
<stop offset="1" stop-color="white" stop-opacity="0"/>
</linearGradient>
</defs>
</svg>
