<svg width="30" height="35" viewBox="0 0 30 35" fill="none" xmlns="http://www.w3.org/2000/svg">
<path d="M24.5388 18.6174C24.5017 14.1917 28.1609 12.0406 28.3216 11.9417C26.2448 8.92532 23.0306 8.505 21.9056 8.46791C19.2106 8.18358 16.5898 10.0874 15.2176 10.0874C13.8206 10.0874 11.6943 8.505 9.41964 8.54209C6.48977 8.59154 3.73297 10.2852 2.23713 12.9307C-0.865812 18.3083 1.44594 26.2202 4.42526 30.5717C5.9211 32.6981 7.65183 35.084 9.93886 34.9975C12.1641 34.9109 13.0047 33.5758 15.6873 33.5758C18.3576 33.5758 19.1364 34.9975 21.4605 34.948C23.8588 34.9109 25.3547 32.8093 26.8011 30.6583C28.5194 28.2229 29.2117 25.8123 29.2364 25.6886C29.1746 25.6639 24.5882 23.9085 24.5388 18.6174Z" fill="#4A4848"/>
<path d="M20.1505 5.61249C21.3497 4.11665 22.1656 2.07687 21.9431 0C20.2124 0.0741739 18.0366 1.19915 16.788 2.67026C15.6878 3.96831 14.6988 6.08226 14.946 8.0726C16.8993 8.22094 18.902 7.08361 20.1505 5.61249Z" fill="#4A4848"/>
</svg>
