<svg width="20" height="26" viewBox="0 0 20 26" fill="none" xmlns="http://www.w3.org/2000/svg">
<path d="M5.33398 5.99967V3.66634C5.33398 3.0475 5.57982 2.45401 6.0174 2.01643C6.45499 1.57884 7.04848 1.33301 7.66732 1.33301H12.334C12.9528 1.33301 13.5463 1.57884 13.9839 2.01643C14.4215 2.45401 14.6673 3.0475 14.6673 3.66634V5.99967M18.1673 5.99967V22.333C18.1673 22.9518 17.9215 23.5453 17.4839 23.9829C17.0463 24.4205 16.4528 24.6663 15.834 24.6663H4.16732C3.54848 24.6663 2.95499 24.4205 2.5174 23.9829C2.07982 23.5453 1.83398 22.9518 1.83398 22.333V5.99967H18.1673Z" stroke="#BBBBBE" stroke-width="2" stroke-linecap="round" stroke-linejoin="round"/>
</svg>
